# xmcd
#
# Track frame offsets:
#	150
#	11468
#	29136
#	40658
#	55868
#	67470
#	83464
#	98686
#	115054
#	131890
#
# Disc length: 1917 seconds
#
# Revision: 1
# Processed by: cddbd v1.5.2PL0 Copyright (c) Steve Scherf et al.
# Submitted via: audiograbber 1.83.01
#
DISCID=82077b0a
DTITLE=Del McCoury - Celebrating 50 Years Of - CD3
DYEAR=2009
DGENRE=Bluegrass
TTITLE0=Loneliness and Desperation
TTITLE1=I Feel the Blues Movin' In
TTITLE2=Don't Get My Love Get in The Way
TTITLE3=Who Showed Who
TTITLE4=Undone in Sorrow
TTITLE5=Take Me to the Mountains
TTITLE6=Eli Renfro
TTITLE7=Queen Anne's Lace
TTITLE8=Nashville Cats
TTITLE9=Beauty of My Dreams
EXTD=
EXTT0=
EXTT1=
EXTT2=
EXTT3=
EXTT4=
EXTT5=
EXTT6=
EXTT7=
EXTT8=
EXTT9=
PLAYORDER=
